<mxfile host="app.diagrams.net" modified="2023-02-26T11:23:38.691Z" agent="5.0 (Macintosh; Intel Mac OS X 10_15_7) AppleWebKit/537.36 (KHTML, like Gecko) Chrome/108.0.0.0 Safari/537.36 Edg/108.0.1462.76" etag="mcoQ2EFIIytizuqmKJ6L" version="20.8.23" type="github">
  <diagram name="第 1 页" id="ZN0JMv3Iqc8klpkMl3w5">
    <mxGraphModel dx="1031" dy="708" grid="0" gridSize="10" guides="1" tooltips="1" connect="1" arrows="1" fold="1" page="1" pageScale="1" pageWidth="827" pageHeight="1169" math="1" shadow="0">
      <root>
        <mxCell id="0" />
        <mxCell id="1" parent="0" />
        <mxCell id="xB5Gg6YbdKtC1ZGyxNAl-2" style="edgeStyle=orthogonalEdgeStyle;rounded=0;orthogonalLoop=1;jettySize=auto;html=1;exitX=0.5;exitY=1;exitDx=0;exitDy=0;entryX=0.5;entryY=0;entryDx=0;entryDy=0;fontFamily=Verdana;fontSize=12;" edge="1" parent="1" source="1Me6tpt0YBGh4gUcgRpN-1" target="xB5Gg6YbdKtC1ZGyxNAl-1">
          <mxGeometry relative="1" as="geometry" />
        </mxCell>
        <mxCell id="1Me6tpt0YBGh4gUcgRpN-1" value="expr(&quot;{a,b}{c,{d,e}}&quot;)" style="rounded=1;whiteSpace=wrap;html=1;hachureGap=4;fontFamily=Verdana;fontSize=12;fillColor=#dae8fc;strokeColor=#6c8ebf;" parent="1" vertex="1">
          <mxGeometry x="280" y="200" width="180" height="30" as="geometry" />
        </mxCell>
        <mxCell id="xB5Gg6YbdKtC1ZGyxNAl-5" style="rounded=0;orthogonalLoop=1;jettySize=auto;html=1;exitX=0.5;exitY=1;exitDx=0;exitDy=0;entryX=0.5;entryY=0;entryDx=0;entryDy=0;fontFamily=Verdana;fontSize=12;" edge="1" parent="1" source="xB5Gg6YbdKtC1ZGyxNAl-1" target="xB5Gg6YbdKtC1ZGyxNAl-3">
          <mxGeometry relative="1" as="geometry" />
        </mxCell>
        <mxCell id="xB5Gg6YbdKtC1ZGyxNAl-6" style="edgeStyle=none;rounded=0;orthogonalLoop=1;jettySize=auto;html=1;exitX=0.5;exitY=1;exitDx=0;exitDy=0;entryX=0.5;entryY=0;entryDx=0;entryDy=0;fontFamily=Verdana;fontSize=12;" edge="1" parent="1" source="xB5Gg6YbdKtC1ZGyxNAl-1" target="xB5Gg6YbdKtC1ZGyxNAl-4">
          <mxGeometry relative="1" as="geometry" />
        </mxCell>
        <mxCell id="xB5Gg6YbdKtC1ZGyxNAl-1" value="term(&quot;{a,b}{c,{d,e}}&quot;)" style="rounded=1;whiteSpace=wrap;html=1;hachureGap=4;fontFamily=Verdana;fontSize=12;fillColor=#ffe6cc;strokeColor=#d79b00;" vertex="1" parent="1">
          <mxGeometry x="280" y="260" width="180" height="30" as="geometry" />
        </mxCell>
        <mxCell id="xB5Gg6YbdKtC1ZGyxNAl-8" style="edgeStyle=none;rounded=0;orthogonalLoop=1;jettySize=auto;html=1;exitX=0.5;exitY=1;exitDx=0;exitDy=0;entryX=0.5;entryY=0;entryDx=0;entryDy=0;fontFamily=Verdana;fontSize=12;" edge="1" parent="1" source="xB5Gg6YbdKtC1ZGyxNAl-3" target="xB5Gg6YbdKtC1ZGyxNAl-7">
          <mxGeometry relative="1" as="geometry" />
        </mxCell>
        <mxCell id="xB5Gg6YbdKtC1ZGyxNAl-3" value="item(&quot;{a,b}&quot;)" style="rounded=1;whiteSpace=wrap;html=1;hachureGap=4;fontFamily=Verdana;fontSize=12;fillColor=#d5e8d4;strokeColor=#82b366;" vertex="1" parent="1">
          <mxGeometry x="154" y="327" width="106" height="30" as="geometry" />
        </mxCell>
        <mxCell id="xB5Gg6YbdKtC1ZGyxNAl-13" style="edgeStyle=none;rounded=0;orthogonalLoop=1;jettySize=auto;html=1;fontFamily=Verdana;fontSize=12;" edge="1" parent="1" source="xB5Gg6YbdKtC1ZGyxNAl-4">
          <mxGeometry relative="1" as="geometry">
            <mxPoint x="545" y="387" as="targetPoint" />
          </mxGeometry>
        </mxCell>
        <mxCell id="xB5Gg6YbdKtC1ZGyxNAl-4" value="item(&quot;{c,{d,e}}&quot;)" style="rounded=1;whiteSpace=wrap;html=1;hachureGap=4;fontFamily=Verdana;fontSize=12;fillColor=#d5e8d4;strokeColor=#82b366;" vertex="1" parent="1">
          <mxGeometry x="480" y="327" width="130" height="30" as="geometry" />
        </mxCell>
        <mxCell id="xB5Gg6YbdKtC1ZGyxNAl-10" style="edgeStyle=none;rounded=0;orthogonalLoop=1;jettySize=auto;html=1;exitX=0.5;exitY=1;exitDx=0;exitDy=0;entryX=0.5;entryY=0;entryDx=0;entryDy=0;fontFamily=Verdana;fontSize=12;" edge="1" parent="1" source="xB5Gg6YbdKtC1ZGyxNAl-7" target="xB5Gg6YbdKtC1ZGyxNAl-9">
          <mxGeometry relative="1" as="geometry" />
        </mxCell>
        <mxCell id="xB5Gg6YbdKtC1ZGyxNAl-12" style="edgeStyle=none;rounded=0;orthogonalLoop=1;jettySize=auto;html=1;exitX=0.5;exitY=1;exitDx=0;exitDy=0;entryX=0.5;entryY=0;entryDx=0;entryDy=0;fontFamily=Verdana;fontSize=12;" edge="1" parent="1" source="xB5Gg6YbdKtC1ZGyxNAl-7" target="xB5Gg6YbdKtC1ZGyxNAl-11">
          <mxGeometry relative="1" as="geometry" />
        </mxCell>
        <mxCell id="xB5Gg6YbdKtC1ZGyxNAl-7" value="expr(&quot;a,b&quot;)" style="rounded=1;whiteSpace=wrap;html=1;hachureGap=4;fontFamily=Verdana;fontSize=12;fillColor=#dae8fc;strokeColor=#6c8ebf;" vertex="1" parent="1">
          <mxGeometry x="154" y="377" width="106" height="30" as="geometry" />
        </mxCell>
        <mxCell id="xB5Gg6YbdKtC1ZGyxNAl-19" style="edgeStyle=none;rounded=0;orthogonalLoop=1;jettySize=auto;html=1;exitX=0.5;exitY=1;exitDx=0;exitDy=0;fontFamily=Verdana;fontSize=12;" edge="1" parent="1" source="xB5Gg6YbdKtC1ZGyxNAl-9">
          <mxGeometry relative="1" as="geometry">
            <mxPoint x="133" y="497" as="targetPoint" />
          </mxGeometry>
        </mxCell>
        <mxCell id="xB5Gg6YbdKtC1ZGyxNAl-9" value="term(&quot;a&quot;)" style="rounded=1;whiteSpace=wrap;html=1;hachureGap=4;fontFamily=Verdana;fontSize=12;fillColor=#ffe6cc;strokeColor=#d79b00;" vertex="1" parent="1">
          <mxGeometry x="80" y="437" width="106" height="30" as="geometry" />
        </mxCell>
        <mxCell id="xB5Gg6YbdKtC1ZGyxNAl-22" style="edgeStyle=none;rounded=0;orthogonalLoop=1;jettySize=auto;html=1;exitX=0.5;exitY=1;exitDx=0;exitDy=0;entryX=0.5;entryY=0;entryDx=0;entryDy=0;fontFamily=Verdana;fontSize=12;" edge="1" parent="1" source="xB5Gg6YbdKtC1ZGyxNAl-11" target="xB5Gg6YbdKtC1ZGyxNAl-21">
          <mxGeometry relative="1" as="geometry" />
        </mxCell>
        <mxCell id="xB5Gg6YbdKtC1ZGyxNAl-11" value="term(&quot;b&quot;)" style="rounded=1;whiteSpace=wrap;html=1;hachureGap=4;fontFamily=Verdana;fontSize=12;fillColor=#ffe6cc;strokeColor=#d79b00;" vertex="1" parent="1">
          <mxGeometry x="228" y="437" width="106" height="30" as="geometry" />
        </mxCell>
        <mxCell id="xB5Gg6YbdKtC1ZGyxNAl-15" style="edgeStyle=none;rounded=0;orthogonalLoop=1;jettySize=auto;html=1;exitX=0.5;exitY=1;exitDx=0;exitDy=0;fontFamily=Verdana;fontSize=12;entryX=0.5;entryY=0;entryDx=0;entryDy=0;" edge="1" parent="1" source="xB5Gg6YbdKtC1ZGyxNAl-14" target="xB5Gg6YbdKtC1ZGyxNAl-16">
          <mxGeometry relative="1" as="geometry">
            <mxPoint x="490" y="437" as="targetPoint" />
          </mxGeometry>
        </mxCell>
        <mxCell id="xB5Gg6YbdKtC1ZGyxNAl-18" style="edgeStyle=none;rounded=0;orthogonalLoop=1;jettySize=auto;html=1;exitX=0.5;exitY=1;exitDx=0;exitDy=0;entryX=0.5;entryY=0;entryDx=0;entryDy=0;fontFamily=Verdana;fontSize=12;" edge="1" parent="1" source="xB5Gg6YbdKtC1ZGyxNAl-14" target="xB5Gg6YbdKtC1ZGyxNAl-17">
          <mxGeometry relative="1" as="geometry" />
        </mxCell>
        <mxCell id="xB5Gg6YbdKtC1ZGyxNAl-14" value="expr(&quot;c,{d,e}&quot;)" style="rounded=1;whiteSpace=wrap;html=1;hachureGap=4;fontFamily=Verdana;fontSize=12;fillColor=#dae8fc;strokeColor=#6c8ebf;" vertex="1" parent="1">
          <mxGeometry x="492" y="377" width="106" height="30" as="geometry" />
        </mxCell>
        <mxCell id="xB5Gg6YbdKtC1ZGyxNAl-25" style="edgeStyle=none;rounded=0;orthogonalLoop=1;jettySize=auto;html=1;exitX=0.5;exitY=1;exitDx=0;exitDy=0;entryX=0.5;entryY=0;entryDx=0;entryDy=0;fontFamily=Verdana;fontSize=12;" edge="1" parent="1" source="xB5Gg6YbdKtC1ZGyxNAl-16" target="xB5Gg6YbdKtC1ZGyxNAl-23">
          <mxGeometry relative="1" as="geometry" />
        </mxCell>
        <mxCell id="xB5Gg6YbdKtC1ZGyxNAl-16" value="term(&quot;c&quot;)" style="rounded=1;whiteSpace=wrap;html=1;hachureGap=4;fontFamily=Verdana;fontSize=12;fillColor=#ffe6cc;strokeColor=#d79b00;" vertex="1" parent="1">
          <mxGeometry x="424" y="437" width="106" height="30" as="geometry" />
        </mxCell>
        <mxCell id="xB5Gg6YbdKtC1ZGyxNAl-28" style="edgeStyle=none;rounded=0;orthogonalLoop=1;jettySize=auto;html=1;exitX=0.5;exitY=1;exitDx=0;exitDy=0;entryX=0.5;entryY=0;entryDx=0;entryDy=0;fontFamily=Verdana;fontSize=12;" edge="1" parent="1" source="xB5Gg6YbdKtC1ZGyxNAl-17" target="xB5Gg6YbdKtC1ZGyxNAl-27">
          <mxGeometry relative="1" as="geometry" />
        </mxCell>
        <mxCell id="xB5Gg6YbdKtC1ZGyxNAl-17" value="term(&quot;{d,e}&quot;)" style="rounded=1;whiteSpace=wrap;html=1;hachureGap=4;fontFamily=Verdana;fontSize=12;fillColor=#ffe6cc;strokeColor=#d79b00;" vertex="1" parent="1">
          <mxGeometry x="564" y="437" width="106" height="30" as="geometry" />
        </mxCell>
        <mxCell id="xB5Gg6YbdKtC1ZGyxNAl-20" value="item(&quot;a&quot;)" style="rounded=1;whiteSpace=wrap;html=1;hachureGap=4;fontFamily=Verdana;fontSize=12;fillColor=#d5e8d4;strokeColor=#82b366;" vertex="1" parent="1">
          <mxGeometry x="80" y="497" width="106" height="30" as="geometry" />
        </mxCell>
        <mxCell id="xB5Gg6YbdKtC1ZGyxNAl-21" value="item(&quot;b&quot;)" style="rounded=1;whiteSpace=wrap;html=1;hachureGap=4;fontFamily=Verdana;fontSize=12;fillColor=#d5e8d4;strokeColor=#82b366;" vertex="1" parent="1">
          <mxGeometry x="228" y="497" width="106" height="30" as="geometry" />
        </mxCell>
        <mxCell id="xB5Gg6YbdKtC1ZGyxNAl-23" value="item(&quot;c&quot;)" style="rounded=1;whiteSpace=wrap;html=1;hachureGap=4;fontFamily=Verdana;fontSize=12;fillColor=#d5e8d4;strokeColor=#82b366;" vertex="1" parent="1">
          <mxGeometry x="424" y="497" width="106" height="30" as="geometry" />
        </mxCell>
        <mxCell id="xB5Gg6YbdKtC1ZGyxNAl-24" style="edgeStyle=none;rounded=0;orthogonalLoop=1;jettySize=auto;html=1;entryX=0.5;entryY=0;entryDx=0;entryDy=0;fontFamily=Verdana;fontSize=12;" edge="1" parent="1" source="xB5Gg6YbdKtC1ZGyxNAl-23" target="xB5Gg6YbdKtC1ZGyxNAl-23">
          <mxGeometry relative="1" as="geometry" />
        </mxCell>
        <mxCell id="xB5Gg6YbdKtC1ZGyxNAl-30" style="edgeStyle=none;rounded=0;orthogonalLoop=1;jettySize=auto;html=1;exitX=0.5;exitY=1;exitDx=0;exitDy=0;entryX=0.5;entryY=0;entryDx=0;entryDy=0;fontFamily=Verdana;fontSize=12;" edge="1" parent="1" source="xB5Gg6YbdKtC1ZGyxNAl-27" target="xB5Gg6YbdKtC1ZGyxNAl-29">
          <mxGeometry relative="1" as="geometry" />
        </mxCell>
        <mxCell id="xB5Gg6YbdKtC1ZGyxNAl-27" value="item(&quot;{d,e}&quot;)" style="rounded=1;whiteSpace=wrap;html=1;hachureGap=4;fontFamily=Verdana;fontSize=12;fillColor=#d5e8d4;strokeColor=#82b366;" vertex="1" parent="1">
          <mxGeometry x="564" y="497" width="106" height="30" as="geometry" />
        </mxCell>
        <mxCell id="xB5Gg6YbdKtC1ZGyxNAl-33" style="edgeStyle=none;rounded=0;orthogonalLoop=1;jettySize=auto;html=1;exitX=0.5;exitY=1;exitDx=0;exitDy=0;entryX=0.5;entryY=0;entryDx=0;entryDy=0;fontFamily=Verdana;fontSize=12;" edge="1" parent="1" source="xB5Gg6YbdKtC1ZGyxNAl-29" target="xB5Gg6YbdKtC1ZGyxNAl-31">
          <mxGeometry relative="1" as="geometry" />
        </mxCell>
        <mxCell id="xB5Gg6YbdKtC1ZGyxNAl-34" style="edgeStyle=none;rounded=0;orthogonalLoop=1;jettySize=auto;html=1;exitX=0.5;exitY=1;exitDx=0;exitDy=0;entryX=0.5;entryY=0;entryDx=0;entryDy=0;fontFamily=Verdana;fontSize=12;" edge="1" parent="1" source="xB5Gg6YbdKtC1ZGyxNAl-29" target="xB5Gg6YbdKtC1ZGyxNAl-32">
          <mxGeometry relative="1" as="geometry" />
        </mxCell>
        <mxCell id="xB5Gg6YbdKtC1ZGyxNAl-29" value="expr(&quot;d,e&quot;)" style="rounded=1;whiteSpace=wrap;html=1;hachureGap=4;fontFamily=Verdana;fontSize=12;fillColor=#dae8fc;strokeColor=#6c8ebf;" vertex="1" parent="1">
          <mxGeometry x="564" y="557" width="106" height="30" as="geometry" />
        </mxCell>
        <mxCell id="xB5Gg6YbdKtC1ZGyxNAl-37" style="edgeStyle=none;rounded=0;orthogonalLoop=1;jettySize=auto;html=1;exitX=0.5;exitY=1;exitDx=0;exitDy=0;entryX=0.5;entryY=0;entryDx=0;entryDy=0;fontFamily=Verdana;fontSize=12;" edge="1" parent="1" target="xB5Gg6YbdKtC1ZGyxNAl-35">
          <mxGeometry relative="1" as="geometry">
            <mxPoint x="534" y="627" as="sourcePoint" />
          </mxGeometry>
        </mxCell>
        <mxCell id="xB5Gg6YbdKtC1ZGyxNAl-31" value="term(&quot;d&quot;)" style="rounded=1;whiteSpace=wrap;html=1;hachureGap=4;fontFamily=Verdana;fontSize=12;fillColor=#ffe6cc;strokeColor=#d79b00;" vertex="1" parent="1">
          <mxGeometry x="481" y="607" width="106" height="30" as="geometry" />
        </mxCell>
        <mxCell id="xB5Gg6YbdKtC1ZGyxNAl-38" style="edgeStyle=none;rounded=0;orthogonalLoop=1;jettySize=auto;html=1;exitX=0.5;exitY=1;exitDx=0;exitDy=0;entryX=0.5;entryY=0;entryDx=0;entryDy=0;fontFamily=Verdana;fontSize=12;" edge="1" parent="1" target="xB5Gg6YbdKtC1ZGyxNAl-36">
          <mxGeometry relative="1" as="geometry">
            <mxPoint x="700" y="627" as="sourcePoint" />
          </mxGeometry>
        </mxCell>
        <mxCell id="xB5Gg6YbdKtC1ZGyxNAl-32" value="term(&quot;e&quot;)" style="rounded=1;whiteSpace=wrap;html=1;hachureGap=4;fontFamily=Verdana;fontSize=12;fillColor=#ffe6cc;strokeColor=#d79b00;" vertex="1" parent="1">
          <mxGeometry x="647" y="607" width="106" height="30" as="geometry" />
        </mxCell>
        <mxCell id="xB5Gg6YbdKtC1ZGyxNAl-35" value="item(&quot;d&quot;)" style="rounded=1;whiteSpace=wrap;html=1;hachureGap=4;fontFamily=Verdana;fontSize=12;fillColor=#d5e8d4;strokeColor=#82b366;" vertex="1" parent="1">
          <mxGeometry x="481" y="663" width="106" height="30" as="geometry" />
        </mxCell>
        <mxCell id="xB5Gg6YbdKtC1ZGyxNAl-36" value="item(&quot;e&quot;)" style="rounded=1;whiteSpace=wrap;html=1;hachureGap=4;fontFamily=Verdana;fontSize=12;fillColor=#d5e8d4;strokeColor=#82b366;" vertex="1" parent="1">
          <mxGeometry x="647" y="663" width="106" height="30" as="geometry" />
        </mxCell>
      </root>
    </mxGraphModel>
  </diagram>
</mxfile>
